<?xml version="1.0" standalone="no"?>
<svg xmlns="http://www.w3.org/2000/svg" xmlns:xlink="http://www.w3.org/1999/xlink" width="2828pt" height="940pt" viewBox="0.00 0.00 2828.12 940.49">
<g id="graph0" class="graph" transform="translate(4,936.489990234375) scale(1)" data-name="TimelineGraph">

<polygon fill="white" stroke="none" points="-4,4 -4,-936.49 2824.12,-936.49 2824.12,4 -4,4" style=""/>
<g id="clust1" class="cluster" data-name="cluster_proc0">

<polygon fill="none" stroke="black" points="128,-824.86 128,-924.49 2373,-924.49 2373,-824.86 128,-824.86" style=""/>
<text text-anchor="middle" x="1250.5" y="-907.89" font-family="Times,serif" font-size="14.00" style="">Processor 1</text>
</g>
<g id="clust2" class="cluster" data-name="cluster_proc1">

<polygon fill="none" stroke="black" points="252,-605.23 252,-704.86 2488,-704.86 2488,-605.23 252,-605.23" style=""/>
<text text-anchor="middle" x="1370" y="-688.26" font-family="Times,serif" font-size="14.00" style="">Processor 2</text>
</g>
<g id="clust3" class="cluster" data-name="cluster_proc2">

<polygon fill="none" stroke="black" points="8,-385.6 8,-485.23 2225,-485.23 2225,-385.6 8,-385.6" style=""/>
<text text-anchor="middle" x="1116.5" y="-468.63" font-family="Times,serif" font-size="14.00" style="">Processor 3</text>
</g>
<!-- Task1_p1 -->
<g id="node1" class="node" pointer-events="visible" data-name="Task1_p1">

<ellipse fill="none" stroke="black" cx="2291" cy="-862.28" rx="74.08" ry="29.33" style=""/>
<text text-anchor="middle" x="2291" y="-866.48" font-family="Times,serif" font-size="14.00" style="">Task 1</text>
<text text-anchor="middle" x="2291" y="-849.68" font-family="Times,serif" font-size="14.00" style="">EST: 0 EFT: 14</text>
</g>
<!-- Task1_p2 -->
<g id="node11" class="node" pointer-events="visible" data-name="Task1_p2">

<ellipse fill="none" stroke="black" cx="2175" cy="-642.65" rx="74.08" ry="29.33" style=""/>
<text text-anchor="middle" x="2175" y="-646.85" font-family="Times,serif" font-size="14.00" style="">Task 1</text>
<text text-anchor="middle" x="2175" y="-630.05" font-family="Times,serif" font-size="14.00" style="">EST: 0 EFT: 16</text>
</g>
<!-- Task1_p1&#45;&gt;Task1_p2 -->
<!-- Task2_p2 -->
<g id="node12" class="node" pointer-events="visible" data-name="Task2_p2">

<ellipse fill="none" stroke="black" cx="2401" cy="-642.65" rx="79.48" ry="29.33" style=""/>
<text text-anchor="middle" x="2401" y="-646.85" font-family="Times,serif" font-size="14.00" style="">Task 2</text>
<text text-anchor="middle" x="2401" y="-630.05" font-family="Times,serif" font-size="14.00" style="">EST: 27 EFT: 46</text>
</g>
<!-- Task1_p1&#45;&gt;Task2_p2 -->
<g id="edge3" class="edge" data-name="Task1_p1-&gt;Task2_p2">

<path fill="none" stroke="black" d="M2305.16,-833.27C2324.61,-794.77 2359.7,-725.36 2381.59,-682.04" style=""/>
<polygon fill="black" stroke="black" points="2384.65,-683.74 2386.04,-673.24 2378.41,-680.59 2384.65,-683.74" style=""/>
<text text-anchor="middle" x="2356" y="-748.26" font-family="Times,serif" font-size="14.00" style="">18</text>
</g>
<!-- Task3_p3 -->
<g id="node23" class="node" pointer-events="visible" data-name="Task3_p3">

<ellipse fill="none" stroke="black" cx="1701" cy="-423.02" rx="74.08" ry="29.33" style=""/>
<text text-anchor="middle" x="1701" y="-427.22" font-family="Times,serif" font-size="14.00" style="">Task 3</text>
<text text-anchor="middle" x="1701" y="-410.42" font-family="Times,serif" font-size="14.00" style="">EST: 9 EFT: 28</text>
</g>
<!-- Task1_p1&#45;&gt;Task3_p3 -->
<g id="edge4" class="edge" data-name="Task1_p1-&gt;Task3_p3">

<path fill="none" stroke="black" d="M2239.27,-840.96C2220.85,-834.62 2199.77,-828.38 2180,-824.86 1382.25,-682.94 1163.84,-845.55 358,-760.86 215.28,-745.86 132.26,-814.79 40,-704.86 11.53,-670.94 9.92,-637.73 40,-605.23 157.34,-478.46 1424.51,-534.73 1590,-485.23 1612.8,-478.41 1636.15,-466.43 1655.51,-454.86" style=""/>
<polygon fill="black" stroke="black" points="1657.27,-457.89 1663.96,-449.67 1653.6,-451.92 1657.27,-457.89" style=""/>
<text text-anchor="middle" x="47" y="-638.45" font-family="Times,serif" font-size="14.00" style="">12</text>
</g>
<!-- Task4_p4 -->
<g id="node31" class="node" pointer-events="visible" data-name="Task4_p4">

<ellipse fill="none" stroke="black" cx="2601" cy="-642.65" rx="49.24" ry="18" style=""/>
<text text-anchor="middle" x="2601" y="-638.45" font-family="Times,serif" font-size="14.00" style="">Task4_p4</text>
</g>
<!-- Task1_p1&#45;&gt;Task4_p4 -->
<g id="edge5" class="edge" data-name="Task1_p1-&gt;Task4_p4">

<path fill="none" stroke="black" d="M2326.56,-836.31C2387.6,-793.46 2511.34,-706.59 2569.48,-665.78" style=""/>
<polygon fill="black" stroke="black" points="2571.47,-668.65 2577.65,-660.04 2567.45,-662.92 2571.47,-668.65" style=""/>
<text text-anchor="middle" x="2458.5" y="-748.26" font-family="Times,serif" font-size="14.00" style="">9</text>
</g>
<!-- Task5_p5 -->
<g id="node32" class="node" pointer-events="visible" data-name="Task5_p5">

<ellipse fill="none" stroke="black" cx="2771" cy="-642.65" rx="49.24" ry="18" style=""/>
<text text-anchor="middle" x="2771" y="-638.45" font-family="Times,serif" font-size="14.00" style="">Task5_p5</text>
</g>
<!-- Task1_p1&#45;&gt;Task5_p5 -->
<g id="edge6" class="edge" data-name="Task1_p1-&gt;Task5_p5">

<path fill="none" stroke="black" d="M2348.58,-843.47C2427.3,-818.02 2571.79,-767.34 2686,-704.86 2706.14,-693.85 2727.08,-678.81 2743.14,-666.4" style=""/>
<polygon fill="black" stroke="black" points="2745.1,-669.31 2750.8,-660.38 2740.78,-663.81 2745.1,-669.31" style=""/>
<text text-anchor="middle" x="2609" y="-748.26" font-family="Times,serif" font-size="14.00" style="">11</text>
</g>
<!-- Task6_p6 -->
<g id="node33" class="node" pointer-events="visible" data-name="Task6_p6">

<ellipse fill="none" stroke="black" cx="139" cy="-642.65" rx="49.24" ry="18" style=""/>
<text text-anchor="middle" x="139" y="-638.45" font-family="Times,serif" font-size="14.00" style="">Task6_p6</text>
</g>
<!-- Task1_p1&#45;&gt;Task6_p6 -->
<g id="edge7" class="edge" data-name="Task1_p1-&gt;Task6_p6">

<path fill="none" stroke="black" d="M2238.65,-841.06C2220.36,-834.82 2199.52,-828.6 2180,-824.86 1328.95,-661.81 1057.36,-974.97 234,-704.86 209.08,-696.69 184.27,-680.35 166.26,-666.61" style=""/>
<polygon fill="black" stroke="black" points="168.72,-664.09 158.69,-660.66 164.39,-669.59 168.72,-664.09" style=""/>
<text text-anchor="middle" x="428" y="-748.26" font-family="Times,serif" font-size="14.00" style="">14</text>
</g>
<!-- Task2_p1 -->
<g id="node2" class="node" pointer-events="visible" data-name="Task2_p1">

<ellipse fill="none" stroke="black" cx="2065" cy="-862.28" rx="79.48" ry="29.33" style=""/>
<text text-anchor="middle" x="2065" y="-866.48" font-family="Times,serif" font-size="14.00" style="">Task 2</text>
<text text-anchor="middle" x="2065" y="-849.68" font-family="Times,serif" font-size="14.00" style="">EST: 27 EFT: 40</text>
</g>
<!-- Task3_p1 -->
<g id="node3" class="node" pointer-events="visible" data-name="Task3_p1">

<ellipse fill="none" stroke="black" cx="1835" cy="-862.28" rx="79.48" ry="29.33" style=""/>
<text text-anchor="middle" x="1835" y="-866.48" font-family="Times,serif" font-size="14.00" style="">Task 3</text>
<text text-anchor="middle" x="1835" y="-849.68" font-family="Times,serif" font-size="14.00" style="">EST: 21 EFT: 32</text>
</g>
<!-- Task4_p1 -->
<g id="node4" class="node" pointer-events="visible" data-name="Task4_p1">

<ellipse fill="none" stroke="black" cx="1605" cy="-862.28" rx="79.48" ry="29.33" style=""/>
<text text-anchor="middle" x="1605" y="-866.48" font-family="Times,serif" font-size="14.00" style="">Task 4</text>
<text text-anchor="middle" x="1605" y="-849.68" font-family="Times,serif" font-size="14.00" style="">EST: 18 EFT: 31</text>
</g>
<!-- Task5_p1 -->
<g id="node5" class="node" pointer-events="visible" data-name="Task5_p1">

<ellipse fill="none" stroke="black" cx="1375" cy="-862.28" rx="79.48" ry="29.33" style=""/>
<text text-anchor="middle" x="1375" y="-866.48" font-family="Times,serif" font-size="14.00" style="">Task 5</text>
<text text-anchor="middle" x="1375" y="-849.68" font-family="Times,serif" font-size="14.00" style="">EST: 40 EFT: 52</text>
</g>
<!-- Task6_p1 -->
<g id="node6" class="node" pointer-events="visible" data-name="Task6_p1">

<ellipse fill="none" stroke="black" cx="1145" cy="-862.28" rx="79.48" ry="29.33" style=""/>
<text text-anchor="middle" x="1145" y="-866.48" font-family="Times,serif" font-size="14.00" style="">Task 6</text>
<text text-anchor="middle" x="1145" y="-849.68" font-family="Times,serif" font-size="14.00" style="">EST: 40 EFT: 53</text>
</g>
<!-- Task7_p1 -->
<g id="node7" class="node" pointer-events="visible" data-name="Task7_p1">

<ellipse fill="none" stroke="black" cx="915" cy="-862.28" rx="79.48" ry="29.33" style=""/>
<text text-anchor="middle" x="915" y="-866.48" font-family="Times,serif" font-size="14.00" style="">Task 7</text>
<text text-anchor="middle" x="915" y="-849.68" font-family="Times,serif" font-size="14.00" style="">EST: 51 EFT: 58</text>
</g>
<!-- Task8_p1 -->
<g id="node8" class="node" pointer-events="visible" data-name="Task8_p1">

<ellipse fill="none" stroke="black" cx="685" cy="-862.28" rx="79.48" ry="29.33" style=""/>
<text text-anchor="middle" x="685" y="-866.48" font-family="Times,serif" font-size="14.00" style="">Task 8</text>
<text text-anchor="middle" x="685" y="-849.68" font-family="Times,serif" font-size="14.00" style="">EST: 57 EFT: 62</text>
</g>
<!-- Task9_p1 -->
<g id="node9" class="node" pointer-events="visible" data-name="Task9_p1">

<ellipse fill="none" stroke="black" cx="455" cy="-862.28" rx="79.48" ry="29.33" style=""/>
<text text-anchor="middle" x="455" y="-866.48" font-family="Times,serif" font-size="14.00" style="">Task 9</text>
<text text-anchor="middle" x="455" y="-849.68" font-family="Times,serif" font-size="14.00" style="">EST: 51 EFT: 69</text>
</g>
<!-- Task10_p1 -->
<g id="node10" class="node" pointer-events="visible" data-name="Task10_p1">

<ellipse fill="none" stroke="black" cx="220" cy="-862.28" rx="84.37" ry="29.33" style=""/>
<text text-anchor="middle" x="220" y="-866.48" font-family="Times,serif" font-size="14.00" style="">Task 10</text>
<text text-anchor="middle" x="220" y="-849.68" font-family="Times,serif" font-size="14.00" style="">EST: 81 EFT: 102</text>
</g>
<!-- Task1_p3 -->
<g id="node21" class="node" pointer-events="visible" data-name="Task1_p3">

<ellipse fill="none" stroke="black" cx="2148" cy="-423.02" rx="69.18" ry="29.33" style=""/>
<text text-anchor="middle" x="2148" y="-427.22" font-family="Times,serif" font-size="14.00" style="">Task 1</text>
<text text-anchor="middle" x="2148" y="-410.42" font-family="Times,serif" font-size="14.00" style="">EST: 0 EFT: 9</text>
</g>
<!-- Task1_p2&#45;&gt;Task1_p3 -->
<!-- Task8_p8 -->
<g id="node34" class="node" pointer-events="visible" data-name="Task8_p8">

<ellipse fill="none" stroke="black" cx="2338" cy="-423.02" rx="49.24" ry="18" style=""/>
<text text-anchor="middle" x="2338" y="-418.82" font-family="Times,serif" font-size="14.00" style="">Task8_p8</text>
</g>
<!-- Task2_p2&#45;&gt;Task8_p8 -->
<g id="edge8" class="edge" data-name="Task2_p2-&gt;Task8_p8">

<path fill="none" stroke="black" d="M2374.62,-614.86C2357.98,-596 2337.99,-569.21 2329,-541.23 2319.55,-511.84 2324.41,-476.26 2329.97,-452.07" style=""/>
<polygon fill="black" stroke="black" points="2333.29,-453.2 2332.32,-442.65 2326.5,-451.5 2333.29,-453.2" style=""/>
<text text-anchor="middle" x="2336" y="-528.63" font-family="Times,serif" font-size="14.00" style="">19</text>
</g>
<!-- Task9_p9 -->
<g id="node35" class="node" pointer-events="visible" data-name="Task9_p9">

<ellipse fill="none" stroke="black" cx="2575" cy="-423.02" rx="49.24" ry="18" style=""/>
<text text-anchor="middle" x="2575" y="-418.82" font-family="Times,serif" font-size="14.00" style="">Task9_p9</text>
</g>
<!-- Task2_p2&#45;&gt;Task9_p9 -->
<g id="edge9" class="edge" data-name="Task2_p2-&gt;Task9_p9">

<path fill="none" stroke="black" d="M2399.38,-613.31C2399.3,-588.03 2402.65,-551.02 2420,-524.43 2446.24,-484.23 2494.8,-456.71 2530.61,-440.78" style=""/>
<polygon fill="black" stroke="black" points="2531.6,-444.16 2539.41,-437 2528.84,-437.73 2531.6,-444.16" style=""/>
<text text-anchor="middle" x="2427" y="-528.63" font-family="Times,serif" font-size="14.00" style="">16</text>
</g>
<!-- Task3_p2 -->
<g id="node13" class="node" pointer-events="visible" data-name="Task3_p2">

<ellipse fill="none" stroke="black" cx="1949" cy="-642.65" rx="79.48" ry="29.33" style=""/>
<text text-anchor="middle" x="1949" y="-646.85" font-family="Times,serif" font-size="14.00" style="">Task 3</text>
<text text-anchor="middle" x="1949" y="-630.05" font-family="Times,serif" font-size="14.00" style="">EST: 21 EFT: 34</text>
</g>
<!-- Task4_p2 -->
<g id="node14" class="node" pointer-events="visible" data-name="Task4_p2">

<ellipse fill="none" stroke="black" cx="1719" cy="-642.65" rx="79.48" ry="29.33" style=""/>
<text text-anchor="middle" x="1719" y="-646.85" font-family="Times,serif" font-size="14.00" style="">Task 4</text>
<text text-anchor="middle" x="1719" y="-630.05" font-family="Times,serif" font-size="14.00" style="">EST: 18 EFT: 26</text>
</g>
<!-- Task5_p2 -->
<g id="node15" class="node" pointer-events="visible" data-name="Task5_p2">

<ellipse fill="none" stroke="black" cx="1489" cy="-642.65" rx="79.48" ry="29.33" style=""/>
<text text-anchor="middle" x="1489" y="-646.85" font-family="Times,serif" font-size="14.00" style="">Task 5</text>
<text text-anchor="middle" x="1489" y="-630.05" font-family="Times,serif" font-size="14.00" style="">EST: 26 EFT: 39</text>
</g>
<!-- Task6_p2 -->
<g id="node16" class="node" pointer-events="visible" data-name="Task6_p2">

<ellipse fill="none" stroke="black" cx="1259" cy="-642.65" rx="79.48" ry="29.33" style=""/>
<text text-anchor="middle" x="1259" y="-646.85" font-family="Times,serif" font-size="14.00" style="">Task 6</text>
<text text-anchor="middle" x="1259" y="-630.05" font-family="Times,serif" font-size="14.00" style="">EST: 26 EFT: 42</text>
</g>
<!-- Task7_p2 -->
<g id="node17" class="node" pointer-events="visible" data-name="Task7_p2">

<ellipse fill="none" stroke="black" cx="1029" cy="-642.65" rx="79.48" ry="29.33" style=""/>
<text text-anchor="middle" x="1029" y="-646.85" font-family="Times,serif" font-size="14.00" style="">Task 7</text>
<text text-anchor="middle" x="1029" y="-630.05" font-family="Times,serif" font-size="14.00" style="">EST: 68 EFT: 83</text>
</g>
<!-- Task8_p2 -->
<g id="node18" class="node" pointer-events="visible" data-name="Task8_p2">

<ellipse fill="none" stroke="black" cx="799" cy="-642.65" rx="79.48" ry="29.33" style=""/>
<text text-anchor="middle" x="799" y="-646.85" font-family="Times,serif" font-size="14.00" style="">Task 8</text>
<text text-anchor="middle" x="799" y="-630.05" font-family="Times,serif" font-size="14.00" style="">EST: 68 EFT: 79</text>
</g>
<!-- Task9_p2 -->
<g id="node19" class="node" pointer-events="visible" data-name="Task9_p2">

<ellipse fill="none" stroke="black" cx="569" cy="-642.65" rx="79.48" ry="29.33" style=""/>
<text text-anchor="middle" x="569" y="-646.85" font-family="Times,serif" font-size="14.00" style="">Task 9</text>
<text text-anchor="middle" x="569" y="-630.05" font-family="Times,serif" font-size="14.00" style="">EST: 56 EFT: 68</text>
</g>
<!-- Task10_p2 -->
<g id="node20" class="node" pointer-events="visible" data-name="Task10_p2">

<ellipse fill="none" stroke="black" cx="339" cy="-642.65" rx="79.48" ry="29.33" style=""/>
<text text-anchor="middle" x="339" y="-646.85" font-family="Times,serif" font-size="14.00" style="">Task 10</text>
<text text-anchor="middle" x="339" y="-630.05" font-family="Times,serif" font-size="14.00" style="">EST: 73 EFT: 80</text>
</g>
<!-- Task2_p3 -->
<g id="node22" class="node" pointer-events="visible" data-name="Task2_p3">

<ellipse fill="none" stroke="black" cx="1927" cy="-423.02" rx="79.48" ry="29.33" style=""/>
<text text-anchor="middle" x="1927" y="-427.22" font-family="Times,serif" font-size="14.00" style="">Task 2</text>
<text text-anchor="middle" x="1927" y="-410.42" font-family="Times,serif" font-size="14.00" style="">EST: 28 EFT: 46</text>
</g>
<!-- Task7_p7 -->
<g id="node36" class="node" pointer-events="visible" data-name="Task7_p7">

<ellipse fill="none" stroke="black" cx="2034" cy="-214.8" rx="49.24" ry="18" style=""/>
<text text-anchor="middle" x="2034" y="-210.6" font-family="Times,serif" font-size="14.00" style="">Task7_p7</text>
</g>
<!-- Task3_p3&#45;&gt;Task7_p7 -->
<g id="edge10" class="edge" data-name="Task3_p3-&gt;Task7_p7">

<path fill="none" stroke="black" d="M1740.18,-397.75C1806.14,-356.91 1938.22,-275.12 2000.3,-236.67" style=""/>
<polygon fill="black" stroke="black" points="2002.04,-239.71 2008.7,-231.47 1998.36,-233.76 2002.04,-239.71" style=""/>
<text text-anchor="middle" x="1894" y="-309" font-family="Times,serif" font-size="14.00" style="">23</text>
</g>
<!-- Task4_p3 -->
<g id="node24" class="node" pointer-events="visible" data-name="Task4_p3">

<ellipse fill="none" stroke="black" cx="1475" cy="-423.02" rx="79.48" ry="29.33" style=""/>
<text text-anchor="middle" x="1475" y="-427.22" font-family="Times,serif" font-size="14.00" style="">Task 4</text>
<text text-anchor="middle" x="1475" y="-410.42" font-family="Times,serif" font-size="14.00" style="">EST: 28 EFT: 45</text>
</g>
<!-- Task5_p3 -->
<g id="node25" class="node" pointer-events="visible" data-name="Task5_p3">

<ellipse fill="none" stroke="black" cx="1245" cy="-423.02" rx="79.48" ry="29.33" style=""/>
<text text-anchor="middle" x="1245" y="-427.22" font-family="Times,serif" font-size="14.00" style="">Task 5</text>
<text text-anchor="middle" x="1245" y="-410.42" font-family="Times,serif" font-size="14.00" style="">EST: 28 EFT: 38</text>
</g>
<!-- Task6_p3 -->
<g id="node26" class="node" pointer-events="visible" data-name="Task6_p3">

<ellipse fill="none" stroke="black" cx="1015" cy="-423.02" rx="79.48" ry="29.33" style=""/>
<text text-anchor="middle" x="1015" y="-427.22" font-family="Times,serif" font-size="14.00" style="">Task 6</text>
<text text-anchor="middle" x="1015" y="-410.42" font-family="Times,serif" font-size="14.00" style="">EST: 38 EFT: 47</text>
</g>
<!-- Task7_p3 -->
<g id="node27" class="node" pointer-events="visible" data-name="Task7_p3">

<ellipse fill="none" stroke="black" cx="785" cy="-423.02" rx="79.48" ry="29.33" style=""/>
<text text-anchor="middle" x="785" y="-427.22" font-family="Times,serif" font-size="14.00" style="">Task 7</text>
<text text-anchor="middle" x="785" y="-410.42" font-family="Times,serif" font-size="14.00" style="">EST: 38 EFT: 49</text>
</g>
<!-- Task8_p3 -->
<g id="node28" class="node" pointer-events="visible" data-name="Task8_p3">

<ellipse fill="none" stroke="black" cx="555" cy="-423.02" rx="79.48" ry="29.33" style=""/>
<text text-anchor="middle" x="555" y="-427.22" font-family="Times,serif" font-size="14.00" style="">Task 8</text>
<text text-anchor="middle" x="555" y="-410.42" font-family="Times,serif" font-size="14.00" style="">EST: 59 EFT: 73</text>
</g>
<!-- Task9_p3 -->
<g id="node29" class="node" pointer-events="visible" data-name="Task9_p3">

<ellipse fill="none" stroke="black" cx="325" cy="-423.02" rx="79.48" ry="29.33" style=""/>
<text text-anchor="middle" x="325" y="-427.22" font-family="Times,serif" font-size="14.00" style="">Task 9</text>
<text text-anchor="middle" x="325" y="-410.42" font-family="Times,serif" font-size="14.00" style="">EST: 56 EFT: 76</text>
</g>
<!-- Task10_p3 -->
<g id="node30" class="node" pointer-events="visible" data-name="Task10_p3">

<ellipse fill="none" stroke="black" cx="95" cy="-423.02" rx="79.48" ry="29.33" style=""/>
<text text-anchor="middle" x="95" y="-427.22" font-family="Times,serif" font-size="14.00" style="">Task 10</text>
<text text-anchor="middle" x="95" y="-410.42" font-family="Times,serif" font-size="14.00" style="">EST: 81 EFT: 97</text>
</g>
<!-- Task4_p4&#45;&gt;Task8_p8 -->
<g id="edge11" class="edge" data-name="Task4_p4-&gt;Task8_p8">

<path fill="none" stroke="black" d="M2581.66,-625.64C2535.68,-587.6 2419.69,-491.61 2366.03,-447.21" style=""/>
<polygon fill="black" stroke="black" points="2368.47,-444.69 2358.53,-441.01 2364.01,-450.08 2368.47,-444.69" style=""/>
<text text-anchor="middle" x="2484" y="-528.63" font-family="Times,serif" font-size="14.00" style="">27</text>
</g>
<!-- Task4_p4&#45;&gt;Task9_p9 -->
<g id="edge12" class="edge" data-name="Task4_p4-&gt;Task9_p9">

<path fill="none" stroke="black" d="M2598.92,-624.21C2594.44,-586.71 2583.85,-498.11 2578.39,-452.4" style=""/>
<polygon fill="black" stroke="black" points="2581.9,-452.26 2577.24,-442.74 2574.95,-453.09 2581.9,-452.26" style=""/>
<text text-anchor="middle" x="2595" y="-528.63" font-family="Times,serif" font-size="14.00" style="">23</text>
</g>
<!-- Task5_p5&#45;&gt;Task9_p9 -->
<g id="edge13" class="edge" data-name="Task5_p5-&gt;Task9_p9">

<path fill="none" stroke="black" d="M2756.27,-625.29C2722.22,-587.48 2637.87,-493.83 2597.39,-448.87" style=""/>
<polygon fill="black" stroke="black" points="2600.21,-446.78 2590.92,-441.69 2595.01,-451.46 2600.21,-446.78" style=""/>
<text text-anchor="middle" x="2685" y="-528.63" font-family="Times,serif" font-size="14.00" style="">13</text>
</g>
<!-- Task6_p6&#45;&gt;Task8_p8 -->
<g id="edge14" class="edge" data-name="Task6_p6-&gt;Task8_p8">

<path fill="none" stroke="black" d="M168.23,-627.76C186.67,-619.68 211.21,-610.16 234,-605.23 1108.29,-416.27 1392.82,-763.24 2243,-485.23 2267.93,-477.08 2292.73,-460.75 2310.74,-447" style=""/>
<polygon fill="black" stroke="black" points="2312.62,-449.97 2318.31,-441.04 2308.29,-444.47 2312.62,-449.97" style=""/>
<text text-anchor="middle" x="2102" y="-528.63" font-family="Times,serif" font-size="14.00" style="">15</text>
</g>
<!-- Task10_p10 -->
<g id="node37" class="node" pointer-events="visible" data-name="Task10_p10">

<ellipse fill="none" stroke="black" cx="2338" cy="-18" rx="58.56" ry="18" style=""/>
<text text-anchor="middle" x="2338" y="-13.8" font-family="Times,serif" font-size="14.00" style="">Task10_p10</text>
</g>
<!-- Task8_p8&#45;&gt;Task10_p10 -->
<g id="edge16" class="edge" data-name="Task8_p8-&gt;Task10_p10">

<path fill="none" stroke="black" d="M2338,-404.7C2338,-341.92 2338,-125.84 2338,-47.58" style=""/>
<polygon fill="black" stroke="black" points="2341.5,-47.77 2338,-37.77 2334.5,-47.77 2341.5,-47.77" style=""/>
<text text-anchor="middle" x="2345" y="-210.6" font-family="Times,serif" font-size="14.00" style="">11</text>
</g>
<!-- Task9_p9&#45;&gt;Task10_p10 -->
<g id="edge17" class="edge" data-name="Task9_p9-&gt;Task10_p10">

<path fill="none" stroke="black" d="M2565.3,-404.9C2538.39,-357.47 2460.32,-220.45 2393,-108 2380.37,-86.89 2365.71,-63.21 2354.7,-45.59" style=""/>
<polygon fill="black" stroke="black" points="2357.76,-43.88 2349.49,-37.26 2351.83,-47.59 2357.76,-43.88" style=""/>
<text text-anchor="middle" x="2473" y="-210.6" font-family="Times,serif" font-size="14.00" style="">13</text>
</g>
<!-- Task7_p7&#45;&gt;Task10_p10 -->
<g id="edge15" class="edge" data-name="Task7_p7-&gt;Task10_p10">

<path fill="none" stroke="black" d="M2057.6,-198.68C2111.1,-164.4 2241.76,-80.67 2303.98,-40.8" style=""/>
<polygon fill="black" stroke="black" points="2305.55,-43.95 2312.08,-35.61 2301.78,-38.06 2305.55,-43.95" style=""/>
<text text-anchor="middle" x="2202" y="-112.2" font-family="Times,serif" font-size="14.00" style="">17</text>
</g>
</g>
</svg>